<svg width="32" height="32" viewBox="0 0 32 32" fill="none" xmlns="http://www.w3.org/2000/svg">
<g clip-path="url(#clip0_32_81)">
<path fill-rule="evenodd" clip-rule="evenodd" d="M32 5.8235C30.8243 6.359 29.5583 6.721 28.2303 6.88275C29.5863 6.05075 30.627 4.73125 31.1173 3.15975C29.8475 3.93025 28.4445 4.49075 26.9455 4.79125C25.751 3.4835 24.0435 2.66675 22.154 2.66675C18.5308 2.66675 15.5913 5.681 15.5913 9.3985C15.5913 9.92625 15.6475 10.4385 15.7603 10.9317C10.3043 10.6502 5.46776 7.973 2.22751 3.8955C1.66226 4.89325 1.33901 6.05075 1.33901 7.2835C1.33901 9.618 2.49801 11.6787 4.25976 12.8865C3.18551 12.8537 2.17101 12.5475 1.28451 12.0467V12.1295C1.28451 15.3922 3.54776 18.1137 6.55301 18.7302C6.00276 18.8882 5.42226 18.9672 4.82301 18.9672C4.40051 18.9672 3.98726 18.9267 3.58701 18.8477C4.42276 21.5212 6.84576 23.4685 9.71951 23.5205C7.47301 25.3272 4.64076 26.4037 1.56601 26.4037C1.03626 26.4037 0.512262 26.373 -0.000488281 26.3112C2.90526 28.218 6.35751 29.3332 10.0633 29.3332C22.1405 29.3332 28.7425 19.0767 28.7425 10.1802C28.7425 9.8875 28.7368 9.59475 28.7255 9.30775C30.009 8.35825 31.1228 7.17375 32 5.8235Z" fill="#CE3A3A"/>
</g>
<defs>
<clipPath id="clip0_32_81">
<rect width="32" height="32" fill="white"/>
</clipPath>
</defs>
</svg>
