<svg width="32" height="32" viewBox="0 0 32 32" fill="none" xmlns="http://www.w3.org/2000/svg">
<path d="M2 6.94995C3.05 6.94995 4.65 6.94995 5.55 6.94995C6 6.94995 6.35 7.24995 6.5 7.64995C6.95 8.94995 7.95 11.8 9.1 13.75C10.65 16.3 11.65 17.25 12.3 17.15C12.95 17 12.75 15.3 12.75 13.95C12.75 12.6 12.9 10.3 12.25 9.24995L11.25 7.79995C11 7.44995 11.25 6.99995 11.65 6.99995H17.35C17.9 6.99995 18.35 7.44995 18.35 7.99995V15.25C18.35 15.25 18.6 16.55 20 15.2C21.4 13.85 22.9 11.35 24.15 8.79995L24.65 7.59995C24.8 7.24995 25.15 6.99995 25.55 6.99995H29.25C29.95 6.99995 30.45 7.69995 30.2 8.34995L29.8 9.39995C29.8 9.39995 28.45 12.1 27.05 14C25.65 15.95 25.35 16.4 25.55 16.9C25.75 17.4 29.35 20.75 30.25 22.35C30.5 22.8 30.7 23.1999 30.9 23.5499C31.25 24.1999 30.75 25.0499 30 25.0499H25.8C25.45 25.0499 25.1 24.8499 24.95 24.5499L24.55 23.9C24.55 23.9 22 20.9 20.45 19.95C18.85 19.05 18.9 20.35 18.9 20.35V23C18.9 24.1 18 25 16.9 25H15.9C15.9 25 10.4 25 6 18.45C2.55 13.35 1.4 10.05 0.999995 8.14995C0.899995 7.54995 1.35 6.94995 2 6.94995Z" fill="#CE3A3A"/>
</svg>
