<svg width="48" height="48" viewBox="0 0 48 48" fill="none" xmlns="http://www.w3.org/2000/svg">
<path d="M39.0644 12.1316C38.0516 12.2122 36.9689 12.7319 36.5597 13.7124C36.2462 14.4428 36.3726 15.3811 36.9931 15.9138C37.4238 16.3347 37.8397 16.7715 38.2807 17.1813C39.4465 18.025 40.9854 18.1953 42.3601 17.8572C43.1991 17.6506 44.0264 17.3328 44.7388 16.8382C45.3873 16.2765 44.9054 15.4003 44.2517 15.1163C43.3748 14.5083 42.5143 13.8796 41.7325 13.1546C41.0511 12.53 40.1573 12.1211 39.2228 12.1293C39.2064 12.1768 39.0799 12.0808 39.0644 12.1316H39.0644Z" fill="#46A05D"/>
<path d="M37.385 13.2576C37.7775 13.7937 38.9432 14.1768 39.7649 14.8989C40.3452 15.4101 40.9216 15.9154 41.5567 16.359C42.0003 16.6901 42.4653 16.9924 42.9098 17.3216C43.0468 17.5219 43.1304 17.701 43.3664 17.5334C43.8399 17.339 44.3223 17.14 44.7386 16.8378C45.3869 16.2758 44.9046 15.3999 44.2509 15.116C43.3741 14.508 42.5133 13.88 41.7323 13.1544C41.0697 12.5482 40.2089 12.1416 39.1333 12.1774C38.0576 12.213 36.9925 12.7214 37.385 13.2576Z" fill="#3A8F4C"/>
<path d="M33.4529 4.69695C32.5584 6.59002 32.0637 8.81018 32.7162 10.8561C32.9534 11.5735 33.305 12.2757 33.8788 12.7809C34.4214 13.3115 34.936 13.8727 35.499 14.3811C36.3055 15.0288 37.5161 14.939 38.3123 14.3183C39.6501 13.3115 40.1477 11.4189 39.6809 9.83993C39.3228 8.45921 38.1533 7.54926 37.3462 6.4461C36.6568 5.54981 36.0318 4.60609 35.3868 3.67868C35.2168 3.49271 34.9682 3.38278 34.4718 3.37511C33.9753 3.36813 33.7394 4.16475 33.4529 4.69684V4.69695Z" fill="#46A05D"/>
<path d="M24.3309 8.24713C23.5705 8.24713 22.7715 8.30507 21.9593 8.41079C21.765 8.43522 21.5837 8.52133 21.4414 8.65601L6.36043 23.0146C6.21183 23.1584 6.11583 23.3482 6.08784 23.553C5.92608 24.6495 5.83569 25.7531 5.83569 26.7491C5.83569 36.955 14.1263 45.2442 24.3309 45.2443C34.5354 45.2443 42.3983 36.8214 42.3983 26.6155C42.3983 16.4095 34.5354 8.2471 24.3309 8.24713H24.3309Z" fill="#87D1EE"/>
<path d="M24.3301 8.24701C23.1734 8.34261 21.7177 8.06245 20.9392 9.13463C16.05 13.8021 11.1342 18.4442 6.2616 23.1276C5.91792 23.7759 6.98934 22.5226 7.26391 22.3319C10.8009 18.976 14.3155 15.5944 17.8665 12.2546C19.7352 11.7368 21.7697 11.9263 23.6808 12.1898C30.985 13.3165 37.2169 19.2566 38.7095 26.4923C39.8657 31.6674 38.6367 37.3084 35.4154 41.5243C41.0026 37.4315 42.2258 28.062 40.8372 21.2709C39.5274 13.9999 35.0465 10.6645 27.7751 9.35366C26.623 9.13245 25.5032 8.24666 24.3301 8.24701Z" fill="#2BB3CD"/>
<path d="M24.3302 8.24715C23.4037 8.30437 22.4055 8.21573 21.5402 8.57511C20.2772 9.76002 19.0167 10.9516 17.7785 12.1622C17.3615 12.7849 17.8328 13.4895 17.9357 14.1406C18.632 16.7835 19.3282 19.4263 20.0245 22.0692C19.9958 22.1387 20.3086 23.3481 20.6177 23.7463C21.902 25.8323 24.3899 26.882 26.7465 27.1305C28.4996 27.3388 30.4335 26.4901 31.1104 24.7857C31.6003 23.8453 31.2884 22.7694 31.4854 21.7797C31.8725 20.58 33.0449 20.9538 33.7927 21.5846C34.8492 22.2396 36.1083 21.4105 36.4355 20.3331C37.0373 18.9603 37.1481 17.4415 37.5124 16.0066C38.1595 15.3554 38.3864 14.3282 37.4852 13.7678C34.0638 10.2681 29.2291 8.22099 24.3301 8.24726L24.3302 8.24715Z" fill="#519462"/>
<path d="M41.3094 25.5963C40.7206 26.0631 39.6796 26.0436 38.3668 25.9173C37.054 25.791 35.4824 25.5336 34.1801 26.5105C33.5567 26.9781 33.2399 27.709 33.1974 28.3587C33.155 29.0084 33.3015 29.6022 33.4625 30.1599C33.7845 31.2752 34.0878 32.309 34.0034 32.6463C33.9765 32.7538 33.6204 33.1425 32.9396 33.5622C32.2588 33.982 31.3764 34.4275 30.6497 35.1256C29.923 35.8236 29.3886 36.9739 29.7302 38.225C30.0717 39.4761 31.059 40.754 32.9306 42.3901C33.2352 42.657 33.6783 42.6943 34.0232 42.4822C39.2979 39.225 42.8276 33.3985 42.8276 26.7469C42.8276 26.525 42.8081 26.3778 42.806 26.298C42.7948 25.8083 42.403 25.4126 42.0489 25.4009C41.6947 25.3904 41.4807 25.4602 41.3094 25.5963Z" fill="#519462"/>
<path d="M6.08485 23.5495C5.92303 24.6465 5.83423 25.7508 5.83423 26.7464C5.83423 36.2534 13.0244 44.0941 22.2637 45.1233C22.8074 45.184 23.2845 44.7616 23.2897 44.2146C23.2954 43.5667 23.7413 42.7672 24.2579 41.82C24.7745 40.8729 25.3668 39.6723 24.9575 38.3077C24.6932 37.4266 24.0845 36.7863 23.4249 36.4181C22.0725 35.7411 19.7498 35.6645 19.2815 35.1847C18.9739 34.5696 18.6595 32.9312 18.2159 31.3713C17.7722 29.8114 17.1809 28.1097 15.5762 27.4677C15.3287 27.3686 15.0922 27.3048 14.8531 27.2332C11.6851 21.9793 10.2306 16.7593 6.08485 23.5495Z" fill="#519462"/>
<path d="M9.8406 20.0572C9.60304 20.0567 9.37443 20.1478 9.20232 20.3115L6.36249 23.016C6.27887 23.0959 6.21098 23.1904 6.16235 23.2955L7.35598 22.1577C7.52809 21.9941 7.7567 21.903 7.99426 21.9033C8.31158 21.9038 8.60641 22.0673 8.77499 22.3361L13.0068 29.0796C13.2459 29.1511 13.4824 29.2149 13.7298 29.314C15.3345 29.956 15.9259 31.6578 16.3695 33.2177C16.8131 34.7776 17.1276 36.416 17.4351 37.0312C17.4609 37.0828 17.5665 37.1892 17.9616 37.3054C18.3567 37.4212 18.945 37.5043 19.5825 37.6229C20.2201 37.7415 20.9189 37.8964 21.5785 38.2647C22.2381 38.633 22.8469 39.2732 23.1111 40.1543C23.5205 41.5189 22.9281 42.7197 22.4115 43.6668C22.1398 44.165 21.8926 44.6194 21.7138 45.0353C21.8981 45.0597 22.0777 45.103 22.2637 45.1235C22.8074 45.1843 23.2844 44.7619 23.2896 44.2148C23.2954 43.5669 23.7413 42.7675 24.2579 41.8203C24.7745 40.8732 25.3668 39.6726 24.9575 38.308C24.6932 37.4269 24.0845 36.7866 23.4249 36.4184C22.0725 35.7413 20.066 35.7567 19.2814 35.1851C18.9739 34.57 18.6594 32.9315 18.2158 31.3715C17.7722 29.8117 17.1809 28.11 15.5761 27.468C15.3287 27.3689 15.0922 27.305 14.8531 27.2335L10.6213 20.49C10.4527 20.2214 10.1579 20.0578 9.8406 20.0573L9.8406 20.0572Z" fill="#43D868"/>
<path d="M12.6777 2.82955L3.58008 5.91662C3.20604 6.04328 2.95404 6.39397 2.95313 6.7889V18.8169C2.95312 20.3355 3.58873 21.7871 4.70451 22.8171L10.8923 28.5347C12.0607 29.6134 13.8876 29.6134 15.0561 28.5347L21.2506 22.817C22.3664 21.787 23.002 20.3354 23.002 18.8168V6.7888C23.0011 6.39386 22.7491 6.04327 22.3751 5.91651L13.2706 2.82944C13.1762 2.79804 13.0772 2.78166 12.9764 2.78132C12.8757 2.781 12.7744 2.79874 12.6777 2.82944L12.6777 2.82955Z" fill="#CFE3EE"/>
<path d="M33.57 5.58204C34.173 6.40432 34.7109 7.27356 35.3382 8.07899C35.871 8.80571 36.4899 9.46223 37.0609 10.1571C37.9507 11.3157 38.2868 12.9246 37.7568 14.3088C37.6767 14.5199 37.5119 14.8046 37.8479 14.5859C39.1226 13.9842 39.7983 12.5428 39.8547 11.1853C39.9015 9.90102 39.3208 8.65669 38.4321 7.74976C37.2884 6.49259 36.3476 5.07519 35.3874 3.67839C35.0548 3.35913 34.3833 3.20527 34.0561 3.60896C33.8247 3.88949 33.6944 4.23432 33.5103 4.57623C33.3261 4.91816 33.0543 5.364 33.57 5.58204Z" fill="#3A8F4C"/>
<path d="M24.33 8.24712C23.4519 8.27503 22.5474 8.27502 21.6939 8.48681C21.1224 8.87337 20.6769 9.42613 20.1567 9.8801C19.3553 10.6693 18.4968 11.408 17.7325 12.2303C17.4281 12.7436 18.2534 11.84 18.5702 12.0662C24.2648 11.3559 30.1967 13.5734 34.0892 17.7771C34.9088 18.6497 35.6446 19.6011 36.2825 20.6141C37.0205 19.1821 37.1196 17.5396 37.5122 16.006C37.7741 15.5195 38.3781 15.0245 38.0396 14.4111C38.0363 14.0755 36.0855 12.2671 34.2852 11.144C31.3336 9.24142 27.8422 8.24178 24.33 8.24691V8.24712Z" fill="#43D868"/>
<path d="M15.614 3.62408C14.6382 9.50427 9.33405 17.3446 5.90088 23.923L10.8918 28.5352C12.0602 29.6139 13.8884 29.6139 15.0568 28.5352L21.2503 22.8177C22.3661 21.7876 23.0011 20.3353 23.0011 18.8167V6.78846C23.0008 6.59592 22.9404 6.40829 22.8282 6.25181C22.716 6.09533 22.5577 5.97784 22.3755 5.91578L15.614 3.62408Z" fill="#B7C9D2"/>
<path d="M16.3849 14.0601C15.4992 14.9531 14.6096 15.8422 13.7203 16.7315C12.8299 17.622 11.9394 18.5124 11.0489 19.4029C10.691 19.763 10.691 20.3444 11.0489 20.7045C11.409 21.0624 11.9905 21.0624 12.3506 20.7045C13.2435 19.8188 14.1326 18.9293 15.0219 18.0399C15.9124 17.1495 16.8028 16.259 17.6933 15.3686C18.0557 15.0077 18.0557 14.421 17.6933 14.0601C17.167 13.6686 16.7643 13.7698 16.3849 14.0601Z" fill="#5B6571"/>
<path d="M14.9334 10.0804C13.5998 11.4158 12.2643 12.7495 10.9263 14.0806C9.59065 15.4163 8.25496 16.752 6.91929 18.0877C6.55685 18.4485 6.55685 19.0353 6.91929 19.3961C7.28013 19.7586 7.86687 19.7586 8.22772 19.3961C9.56316 18.0625 10.8968 16.727 12.228 15.389C13.5637 14.0534 14.8993 12.7177 16.235 11.382C16.5929 11.0219 16.5929 10.4405 16.235 10.0804C15.7078 9.68342 15.2846 9.73914 14.9334 10.0804Z" fill="#6A7986"/>
<path d="M41.836 25.3959C41.3001 25.4633 40.9204 25.9632 40.3509 25.9518C39.8088 26.1192 38.8433 25.7909 38.5882 26.0673C39.7782 30.7282 38.9885 35.8372 36.4846 39.9399C36.1564 40.4838 35.8005 41.011 35.4189 41.5189C39.3224 38.6163 41.9948 34.1188 42.6462 29.2951C42.7752 28.2519 42.8733 27.1935 42.7895 26.1433C42.7119 25.7005 42.2838 25.3674 41.8361 25.3959H41.836Z" fill="#43D868"/>
<path d="M14.9325 10.0808C13.9169 11.0995 12.7851 12.2293 11.8691 13.1424C10.8394 15.0918 9.71617 17.0665 8.61279 19.0095L9.56301 18.0611C11.785 15.8332 14.0094 13.6075 16.2343 11.3826C16.5924 11.0225 16.5924 10.4408 16.2343 10.0808C15.7072 9.68409 15.3703 9.72537 14.9325 10.0808Z" fill="#5B6571"/>
<path d="M39.1332 8.64181C38.6796 7.95403 38.1554 7.46465 37.4064 6.52936C36.6574 5.59409 35.4802 3.79697 35.4802 3.79697C35.3109 3.53912 35.0241 3.38286 34.7157 3.38042C34.3955 3.37766 34.0966 3.54055 33.9259 3.81135C33.9259 3.81135 33.1814 4.98738 32.7395 6.60432C32.4574 7.63668 32.2916 8.90553 32.5466 10.1852C30.072 8.94712 27.2833 8.24688 24.33 8.24688C23.8981 8.24688 23.4533 8.26785 23.0012 8.30448V6.7881C23.0006 6.39338 22.7492 6.04261 22.3755 5.91539L13.27 2.82853C13.0754 2.71584 12.8583 2.73189 12.6768 2.82875L3.58035 5.9156C3.20597 6.04226 2.9537 6.39321 2.95288 6.78842V18.8166C2.95288 20.3353 3.58788 21.7875 4.70365 22.8176L6.03251 24.0455C5.91371 24.9766 5.83598 25.9022 5.83598 26.7483C5.83598 36.2275 12.988 44.0495 22.1825 45.1161C22.9214 45.2065 23.6941 45.2263 24.33 45.2441C28.1778 45.317 30.5372 44.716 34.1855 42.3755C39.369 39.0966 42.8258 33.3283 42.8258 26.7483L42.7933 26.0885C42.6889 23.1653 41.895 20.4239 40.5846 17.9999C42.7348 18.1688 44.618 16.9288 44.618 16.9288C45.1817 16.5718 45.1922 15.7532 44.6379 15.3819C44.6379 15.3819 43.3565 14.5194 42.4436 13.7808C42.4436 13.778 42.4436 13.7772 42.4436 13.7737C42.0407 13.4496 41.6869 13.0693 41.1634 12.7172C40.775 12.4559 40.2752 12.2458 39.6957 12.1655C39.7582 11.9299 39.8126 11.6878 39.8572 10.9634C39.9018 10.2389 39.5868 9.33005 39.1332 8.64224L39.1332 8.64181ZM12.9779 4.67703L21.1548 7.45733V9.31445V18.8166C21.1548 19.8209 20.735 20.7806 19.9972 21.4617L13.8019 27.1792C13.3282 27.6165 12.6204 27.6165 12.1467 27.1792C10.081 25.2698 8.013 23.3655 5.95137 21.4617C5.21364 20.7806 4.79921 19.8209 4.79922 18.8166V7.45009L12.9779 4.67703ZM34.9067 6.16817C35.3582 6.82563 35.6013 7.22364 36.25 8.03615C36.8034 8.73335 37.2971 9.21066 37.5915 9.6571C37.881 10.096 38.0247 10.4911 37.9936 11.2528C37.9358 12.1894 37.5914 12.6171 36.8288 12.9837C36.1475 12.6366 35.5671 11.9455 34.968 11.2598C34.0849 9.95898 34.1582 8.41547 34.5191 7.09476C34.6653 6.5596 34.7368 6.54563 34.9067 6.16796V6.16807V6.16817ZM14.9324 10.0808C13.6005 11.4174 12.2639 12.7493 10.926 14.08C9.59011 15.4156 8.25539 16.7524 6.91962 18.0882C6.55798 18.4489 6.55798 19.0347 6.91962 19.3954C7.28033 19.7571 7.86613 19.7571 8.22684 19.3954C9.56364 18.0631 10.8969 16.7272 12.2278 15.389C13.5633 14.0536 14.8988 12.7181 16.2342 11.3826C16.5923 11.0225 16.5923 10.4409 16.2342 10.0808C15.7072 9.68414 15.2835 9.7542 14.9324 10.0808ZM33.0063 19.1304C32.1742 18.9322 31.0755 19.2916 30.2332 20.3023C29.6368 21.0181 29.56 21.8602 29.5571 22.4894C29.5541 23.1187 29.5739 23.6002 29.4831 23.8724C29.2413 24.5979 28.862 24.9216 28.2967 25.1274C27.7314 25.3332 26.9488 25.3489 26.1168 25.1741C24.3416 24.5679 22.5694 23.7801 21.9157 22.0728C22.6127 21.1388 23.0011 19.9988 23.0011 18.8165V10.1618C23.4601 10.1217 23.9088 10.0933 24.33 10.0933H24.33C28.8919 10.0933 33.0179 11.9245 36.0228 14.8895C35.8185 15.237 35.6542 15.6245 35.5811 16.0634C35.2014 18.3419 34.8072 19.5412 34.5876 19.9074C34.3349 19.7828 33.8243 19.3251 33.0063 19.1303V19.1304ZM16.3857 14.0602C15.5 14.9535 14.6103 15.8429 13.7208 16.7324C12.8294 17.6218 11.939 18.5123 11.0486 19.4027C10.6906 19.7628 10.6906 20.3444 11.0486 20.7045C11.4087 21.0626 11.9904 21.0626 12.3504 20.7045C13.2438 19.8189 14.1331 18.929 15.0226 18.0395C15.9114 17.1481 16.8022 16.2587 17.6929 15.3692C18.0558 15.0083 18.0558 14.4211 17.6929 14.0602C17.1774 13.6656 16.7481 13.6924 16.3857 14.0602ZM40.1266 14.2514C40.4163 14.4461 40.7705 14.8032 41.286 15.2178C41.7074 15.5583 41.8415 15.63 42.247 15.9211C41.3686 16.1842 40.2865 16.2974 39.3639 15.6684L38.2118 14.5163C38.3765 14.2396 38.7022 13.9784 39.1632 13.979C39.6313 13.972 39.8447 14.0617 40.1266 14.2512V14.2514ZM37.395 16.4367C39.4504 19.0407 40.7404 22.2723 40.9398 25.8018C40.3292 26.0485 39.4459 26.0203 38.3758 25.9173C37.0602 25.7907 35.4843 25.5309 34.1783 26.5105C33.555 26.9781 33.24 27.7072 33.1974 28.3569C33.1549 29.0066 33.3016 29.5987 33.4625 30.1563C33.7843 31.2716 34.086 32.3071 34.0016 32.6445C33.9747 32.752 33.6197 33.1441 32.9378 33.5641C32.2559 33.9842 31.375 34.4317 30.6479 35.131C29.9209 35.8303 29.3831 36.98 29.7283 38.2323C30.0083 39.248 30.7428 40.2921 32.002 41.521C29.7213 42.944 26.4614 43.7104 23.4988 43.3565C23.6781 42.8964 23.9474 42.3897 24.2561 41.824C24.7734 40.8757 25.3674 39.6747 24.9574 38.308C24.6932 37.4269 24.0845 36.7884 23.4248 36.4201C22.7652 36.0519 22.0647 35.897 21.4271 35.7783C20.7894 35.6596 20.2013 35.5752 19.8061 35.459C19.4109 35.3428 19.3072 35.2385 19.2814 35.1869C18.9738 34.5716 18.6614 32.9294 18.2176 31.3698C17.8149 29.9543 17.279 28.4285 15.9854 27.6771L20.4985 23.5121C21.7403 25.3509 23.9359 26.5796 25.7346 26.9811C26.8039 27.2058 27.9158 27.2355 28.9314 26.8657C29.9455 26.4965 30.8315 25.6624 31.1594 24.6745C31.4873 23.6866 31.4028 23.0087 31.4052 22.5039C31.4076 21.9975 31.4467 21.726 31.6504 21.4815C32.2248 20.7922 32.3444 20.8744 32.5772 20.9298C32.81 20.9853 33.196 21.2912 33.7888 21.5844C34.0853 21.7309 34.5115 21.8861 35.0095 21.7738C35.5075 21.6611 35.9 21.2893 36.1617 20.8615C36.6795 20.0149 37.0074 18.7474 37.395 16.4367ZM7.72919 25.6143L10.8918 28.5353C11.8458 29.416 13.2346 29.565 14.35 29.0076C15.6259 29.4039 16.163 30.9268 16.4398 31.8746C16.8431 33.2921 17.0559 34.8591 17.6316 36.0107C17.9904 36.7284 18.6804 37.0511 19.2886 37.2297C19.8968 37.4083 20.5203 37.4854 21.0935 37.592C22.8742 37.8781 23.0588 38.1899 23.1923 38.838C23.372 39.4371 23.1145 40.0547 22.6333 40.9367C22.2862 41.5731 21.8304 42.2969 21.5965 43.1546C13.6975 41.8511 7.68231 35.0231 7.68231 26.7484C7.68231 26.3943 7.70377 26.0056 7.72919 25.6143H7.72919ZM40.929 27.7507C40.612 33.0781 37.8198 37.7287 33.6626 40.5434C32.3004 39.2666 31.6614 38.3047 31.5062 37.7415C31.3317 37.1088 31.4794 36.8858 31.9227 36.4595C32.3659 36.0332 33.1468 35.6056 33.906 35.1379C34.6653 34.6702 35.5279 34.1572 35.7938 33.0933C36.125 31.769 35.5143 30.6138 35.2349 29.6457C35.0952 29.1617 35.0195 28.7402 35.0366 28.4792C35.0537 28.2182 35.0829 28.1435 35.289 27.9887C35.5513 27.7919 35.9443 27.7033 36.4393 27.6785C36.9344 27.6541 37.5318 27.6925 38.2869 27.7665C39.042 27.8391 40.004 27.9475 40.929 27.749V27.7507Z" fill="black"/>
</svg>
