<svg width="32" height="32" viewBox="0 0 32 32" fill="none" xmlns="http://www.w3.org/2000/svg">
<path d="M16 0C20.2435 0 24.3131 1.68571 27.3137 4.68629C30.3143 7.68687 32 11.7565 32 16C32 20.2435 30.3143 24.3131 27.3137 27.3137C24.3131 30.3143 20.2435 32 16 32C11.7565 32 7.68687 30.3143 4.68629 27.3137C1.68571 24.3131 0 20.2435 0 16C0 11.7565 1.68571 7.68687 4.68629 4.68629C7.68687 1.68571 11.7565 0 16 0V0ZM16 2.61333C8.648 2.61333 2.66667 8.59467 2.66667 16C2.66323 18.8146 3.54701 21.5586 5.19239 23.8421C6.83777 26.1256 9.16104 27.8325 11.832 28.72C11.8718 28.726 11.9118 28.7304 11.952 28.7333C12.4933 28.76 12.696 28.3893 12.696 28.0667L12.6773 25.7893C8.97067 26.5973 8.18667 23.992 8.18667 23.992C7.58133 22.4453 6.70667 22.0347 6.70667 22.0347C5.496 21.2027 6.79733 21.2187 6.79733 21.2187C7.77067 21.288 8.408 21.9867 8.68533 22.3653L8.84 22.6C10.0293 24.6453 11.96 24.056 12.72 23.7147C12.8427 22.848 13.184 22.2587 13.5653 21.9227C10.6053 21.584 7.49333 20.4347 7.49333 15.304C7.49333 13.8427 8.01333 12.648 8.86667 11.7093L8.78667 11.4827C8.616 10.9413 8.38133 9.728 8.99733 8.16533L9.104 8.14667C9.43467 8.104 10.5653 8.112 12.664 9.53867C13.7511 9.24131 14.8729 9.08977 16 9.088C17.1333 9.09333 18.2747 9.24267 19.3387 9.54133C21.8853 7.808 23.0027 8.16533 23.0027 8.16533C23.728 10.0107 23.2693 11.3707 23.136 11.712C23.9893 12.6453 24.504 13.8427 24.504 15.304C24.504 20.4507 21.3867 21.5813 18.416 21.912C18.896 22.3253 19.3227 23.144 19.3227 24.392L19.3067 28.0667C19.3067 28.4133 19.5333 28.8187 20.168 28.72C22.839 27.8325 25.1622 26.1256 26.8076 23.8421C28.453 21.5586 29.3368 18.8146 29.3333 16C29.3333 8.59467 23.352 2.61333 16 2.61333Z" fill="#CE3A3A"/>
</svg>
