<svg width="32" height="32" viewBox="0 0 32 32" fill="none" xmlns="http://www.w3.org/2000/svg">
<path d="M16 30.8946C24.226 30.8946 30.8946 24.226 30.8946 16C30.8946 7.77398 24.226 1.10547 16 1.10547C7.77398 1.10547 1.10547 7.77398 1.10547 16C1.10547 24.226 7.77398 30.8946 16 30.8946Z" fill="#CE3A3A"/>
<path d="M13.7368 11.1011C13.7368 11.5316 13.7368 13.4516 13.7368 13.4516H12.0146V16.3258H13.7368V24.2036H17.2743V16.32H19.6481C19.6481 16.32 19.8692 14.9411 19.9797 13.4342C19.6714 13.4342 17.2917 13.4342 17.2917 13.4342C17.2917 13.4342 17.2917 11.7643 17.2917 11.4676C17.2917 11.1767 17.6757 10.7811 18.0597 10.7811C18.4379 10.7811 19.2408 10.7811 19.9856 10.7811C19.9856 10.3913 19.9856 9.03562 19.9856 7.79053C18.9906 7.79053 17.8619 7.79053 17.3674 7.79053C13.6496 7.79635 13.7368 10.6705 13.7368 11.1011Z" fill="#343434"/>
</svg>
